<?xml version="1.0" standalone="no"?>
<!DOCTYPE svg PUBLIC "-//W3C//DTD SVG 20010904//EN"
 "http://www.w3.org/TR/2001/REC-SVG-20010904/DTD/svg10.dtd">
<svg version="1.0" xmlns="http://www.w3.org/2000/svg"
 width="728.000000pt" height="728.000000pt" viewBox="0 0 728.000000 728.000000"
 preserveAspectRatio="xMidYMid meet">
<metadata>
Created by potrace 1.11, written by Peter Selinger 2001-2013
</metadata>
<g transform="translate(0.000000,728.000000) scale(0.100000,-0.100000)"
fill="#000000" stroke="none">
<path d="M1509 6717 c7 -9 17 -15 20 -12 4 2 8 -2 8 -10 0 -11 -5 -12 -20 -3
-17 9 -19 8 -13 -7 5 -14 4 -16 -8 -6 -11 9 -15 8 -21 -6 -5 -10 -7 -22 -6
-27 1 -5 -4 -4 -12 3 -12 9 -16 8 -22 -6 -5 -10 -8 -21 -7 -24 0 -3 -6 -6 -13
-6 -11 0 -12 4 -4 13 7 8 7 14 -1 19 -5 3 -11 4 -11 1 -1 -3 -3 -10 -4 -16 -1
-5 -3 -15 -4 -21 0 -6 -11 -8 -23 -5 -13 3 -17 3 -10 0 6 -3 12 -10 12 -15 0
-6 -4 -8 -9 -5 -5 3 -15 -1 -22 -10 -10 -13 -10 -17 2 -25 12 -7 11 -9 -2 -9
-9 0 -20 -7 -23 -16 -3 -8 -10 -12 -16 -9 -5 3 -10 1 -10 -5 0 -6 -4 -8 -10
-5 -5 3 -10 1 -10 -5 0 -7 7 -10 15 -6 8 3 15 1 15 -4 0 -6 -9 -10 -21 -10
-11 0 -17 -4 -14 -10 3 -5 0 -10 -7 -10 -9 0 -9 -3 2 -10 8 -5 13 -10 10 -11
-34 -6 -43 -9 -48 -15 -4 -4 1 -5 10 -1 9 3 19 0 22 -8 3 -9 -1 -12 -15 -10
-11 2 -17 0 -14 -5 7 -12 -5 -41 -15 -35 -5 3 -12 1 -15 -5 -4 -6 -3 -10 2 -9
4 1 17 1 28 -1 l20 -1 -20 -9 c-11 -5 -14 -9 -7 -9 6 -1 12 -6 12 -13 0 -6 -3
-8 -7 -5 -3 4 -13 1 -21 -6 -9 -7 -13 -7 -9 -1 4 8 -7 10 -36 8 -23 -1 -44 -3
-47 -4 -3 -1 -9 -2 -13 -1 -5 1 -6 -3 -2 -9 5 -7 11 -8 19 -1 8 7 16 4 26 -12
12 -20 12 -21 -4 -8 -11 10 -20 11 -24 5 -4 -6 -26 -10 -50 -10 -23 1 -42 -3
-42 -7 0 -5 -6 -5 -12 -1 -10 6 -10 4 0 -8 16 -20 4 -29 -31 -22 -15 2 -27 0
-27 -6 0 -5 -5 -10 -11 -10 -5 0 -7 6 -3 13 4 6 3 8 -1 4 -16 -14 -14 -36 3
-30 14 4 15 3 2 -5 -9 -7 -18 -8 -26 -1 -8 7 -15 6 -20 -2 -5 -8 -3 -9 6 -4 8
5 11 4 7 -2 -4 -6 -18 -9 -32 -7 -17 1 -25 -2 -22 -9 2 -7 13 -10 23 -9 10 2
16 1 13 -2 -13 -13 -62 -17 -69 -5 -4 6 -8 0 -9 -15 -3 -49 -4 -56 -13 -56 -5
0 -6 10 -2 22 6 20 5 21 -10 6 -9 -10 -13 -24 -9 -35 3 -10 3 -15 -1 -11 -11
10 -49 -28 -41 -41 3 -6 1 -11 -5 -11 -8 0 -10 -9 -5 -27 5 -23 4 -26 -6 -15
-20 19 -28 14 -23 -13 3 -16 0 -25 -8 -26 -7 0 -4 -4 7 -9 11 -5 15 -9 8 -9
-9 -1 -12 -23 -11 -74 1 -41 -2 -79 -6 -85 -4 -7 -2 -12 4 -12 7 0 9 -7 6 -16
-5 -14 -4 -15 9 -4 9 7 18 10 22 6 3 -3 1 -6 -5 -6 -7 0 -12 -5 -12 -11 0 -5
6 -7 13 -3 9 6 9 4 -1 -8 -9 -11 -10 -18 -2 -23 6 -3 8 -11 4 -16 -3 -5 -2 -9
3 -8 15 4 43 -13 37 -23 -3 -5 -11 -4 -20 3 -10 8 -14 8 -14 0 0 -10 13 -15
33 -12 4 0 7 -6 7 -14 0 -8 5 -15 11 -15 5 0 7 4 4 10 -3 6 1 7 9 4 13 -5 12
-9 -7 -26 -12 -11 -16 -17 -9 -13 15 8 44 -13 36 -26 -9 -15 20 -5 33 11 9 12
10 9 6 -15 -4 -24 -2 -27 7 -15 10 13 11 11 7 -6 -5 -22 14 -27 30 -9 4 4 3 5
-3 2 -6 -3 -11 1 -11 9 0 34 26 -12 29 -53 1 -7 5 -10 9 -8 4 3 5 15 3 28 -2
12 -2 16 2 9 3 -6 10 -10 15 -7 5 4 6 0 3 -8 -3 -8 0 -18 7 -23 8 -4 10 -3 5
4 -4 7 -2 12 3 12 10 0 15 -12 13 -31 -1 -3 13 -3 30 -1 24 4 29 2 23 -8 -6
-10 -4 -12 8 -7 9 3 23 0 31 -8 17 -18 40 -20 30 -3 -5 7 -3 8 7 2 8 -4 21 -9
29 -11 8 -1 25 -14 36 -29 14 -17 24 -22 28 -15 12 20 27 1 16 -19 -9 -16 -8
-18 5 -14 12 5 14 2 7 -17 -5 -13 -7 -30 -4 -38 3 -8 0 -11 -7 -7 -7 5 -9 1
-5 -8 3 -9 11 -16 18 -16 6 0 5 -4 -4 -9 -8 -6 -18 -7 -24 -4 -5 3 -6 1 -2 -6
4 -6 11 -9 14 -7 4 2 8 -10 8 -27 1 -18 -1 -26 -3 -19 -6 15 -33 16 -33 1 0
-5 -4 -7 -10 -4 -5 3 -10 2 -10 -2 0 -5 -15 -8 -34 -7 -22 1 -37 -3 -40 -12
-4 -12 -2 -12 15 -4 11 6 25 9 32 6 7 -2 4 -5 -5 -5 -10 -1 -18 -5 -18 -10 0
-5 -8 -8 -17 -6 -10 1 -28 -1 -40 -6 -13 -5 -25 -4 -28 2 -9 14 -25 1 -19 -15
7 -18 -12 -30 -22 -15 -5 8 -3 9 6 4 9 -5 11 -4 6 4 -10 15 -27 4 -20 -14 4
-10 0 -12 -15 -8 -12 3 -21 1 -21 -6 0 -5 -6 -9 -12 -7 -7 1 -10 1 -5 -1 17
-10 5 -25 -17 -21 -24 5 -28 -5 -12 -30 7 -11 4 -12 -13 -2 -12 6 -18 16 -15
22 4 7 3 8 -4 4 -6 -4 -8 -14 -5 -23 5 -12 3 -14 -8 -8 -12 7 -12 6 -1 -7 10
-12 9 -18 -3 -28 -9 -7 -15 -8 -15 -2 0 6 6 12 13 15 6 3 2 4 -10 4 -15 -1
-20 -6 -18 -19 3 -11 -2 -18 -13 -19 -10 0 -12 -3 -4 -6 20 -8 13 -25 -8 -18
-15 5 -18 3 -14 -9 4 -9 1 -16 -6 -16 -9 0 -10 -3 -1 -13 14 -18 2 -30 -16
-15 -22 18 -28 0 -7 -19 11 -10 15 -15 10 -10 -18 13 -24 7 -22 -24 1 -18 -3
-33 -11 -36 -7 -3 -13 -10 -13 -15 0 -6 7 -7 16 -4 13 5 14 3 7 -6 -6 -7 -9
-24 -7 -37 5 -27 -16 -47 -28 -28 -4 6 -6 -1 -4 -16 1 -15 6 -30 11 -35 4 -4
5 -1 1 6 -4 7 -1 12 8 12 19 0 21 -11 4 -28 -9 -9 -8 -12 7 -13 19 0 19 -1 0
-9 -13 -6 -15 -9 -5 -9 10 -1 15 -12 15 -38 0 -32 4 -37 19 -35 14 3 17 -1 13
-12 -4 -9 -2 -16 4 -16 6 0 7 -6 3 -12 -6 -10 -4 -10 8 0 13 10 18 10 24 1 4
-8 3 -9 -4 -5 -7 4 -12 3 -12 -3 0 -5 5 -11 10 -13 6 -2 12 -13 12 -24 1 -11
8 -21 15 -21 9 0 11 8 8 21 -5 17 -3 16 9 -4 8 -14 12 -28 10 -32 -8 -13 7
-29 19 -21 20 13 34 11 34 -3 0 -11 -4 -11 -16 -2 -9 7 -6 1 7 -13 12 -14 20
-28 16 -31 -3 -3 3 -5 13 -5 10 1 21 8 24 16 3 9 10 3 18 -17 15 -36 27 -41
34 -14 4 16 5 16 6 0 0 -10 6 -18 12 -18 5 0 7 -6 3 -12 -6 -10 -4 -10 7 -2
22 18 75 11 71 -9 -3 -20 9 -22 27 -4 9 7 11 7 8 1 -10 -17 24 -27 36 -12 6 9
7 8 3 -5 -5 -14 -1 -16 22 -12 20 4 22 3 8 -3 -23 -10 -30 -39 -10 -39 9 0 10
4 4 12 -6 7 -2 11 13 12 12 1 17 -1 11 -5 -6 -4 -10 -26 -9 -50 2 -33 0 -40
-10 -32 -10 8 -15 8 -21 -1 -4 -8 -3 -9 4 -5 17 10 15 -9 -1 -23 -8 -6 -18 -7
-22 -3 -5 4 -5 1 -1 -6 6 -10 1 -12 -23 -9 -17 3 -31 1 -31 -4 0 -6 -5 -7 -11
-3 -8 5 -8 1 0 -14 10 -18 8 -20 -17 -17 -15 2 -33 -2 -41 -9 -10 -7 -12 -7
-8 0 3 6 0 11 -8 11 -10 0 -11 -5 -4 -19 6 -11 6 -18 0 -18 -5 0 -11 6 -14 13
-3 9 -8 9 -18 -2 -12 -12 -12 -13 1 -6 12 7 13 5 2 -6 -7 -7 -22 -14 -34 -14
-12 0 -23 -7 -25 -15 -4 -13 -3 -13 7 0 9 12 11 12 8 1 -2 -8 -12 -15 -21 -17
-9 -1 -15 2 -12 7 4 5 -1 6 -10 3 -9 -4 -14 -13 -11 -20 3 -8 1 -14 -5 -14 -6
0 -8 -4 -4 -9 3 -5 0 -13 -6 -17 -8 -4 -9 -3 -5 4 4 7 1 12 -6 12 -9 0 -9 3 2
10 9 6 10 10 3 10 -6 0 -18 -13 -27 -30 -9 -19 -11 -30 -4 -30 6 0 9 -3 5 -6
-3 -3 -11 -3 -17 1 -8 5 -8 11 1 21 10 12 9 13 -5 8 -10 -4 -15 -13 -12 -21 4
-8 -3 -17 -17 -23 -18 -7 -19 -9 -4 -9 10 -1 16 -5 12 -11 -3 -5 -13 -6 -22
-3 -11 4 -14 3 -9 -5 4 -7 1 -12 -8 -12 -8 0 -17 -4 -20 -9 -3 -5 0 -8 7 -7 6
0 13 -3 13 -9 1 -5 -2 -9 -7 -7 -5 1 -9 -4 -9 -10 0 -9 -3 -8 -10 2 -6 10 -8
4 -7 -20 1 -26 -2 -34 -12 -32 -12 3 -12 0 -1 -12 13 -16 2 -22 -16 -8 -5 4
-1 -1 9 -10 16 -15 16 -18 4 -18 -9 0 -19 -5 -23 -11 -4 -8 1 -9 17 -4 19 5
21 4 9 -4 -13 -10 -13 -11 0 -11 13 0 13 -1 0 -10 -13 -9 -13 -11 0 -20 8 -5
10 -10 5 -10 -6 0 -16 5 -23 12 -9 9 -12 8 -12 -5 0 -9 6 -17 14 -17 15 0 16
-24 1 -37 -4 -4 -5 -3 -1 4 3 6 2 14 -3 17 -16 10 -4 -57 13 -69 9 -7 16 -26
16 -44 0 -17 5 -31 11 -31 5 0 7 5 3 12 -5 7 -3 8 5 3 9 -5 10 -10 2 -18 -6
-6 -11 -16 -11 -22 0 -5 4 -3 10 5 5 8 12 11 16 7 4 -3 1 -14 -6 -22 -11 -13
-11 -16 1 -13 9 2 14 -5 13 -19 -1 -13 3 -23 8 -23 6 0 8 7 4 15 -3 8 -1 15 4
15 9 0 11 -6 9 -27 0 -5 10 -11 23 -14 14 -3 22 -12 22 -22 -1 -9 5 -17 13
-17 8 0 11 -5 7 -11 -4 -7 1 -7 16 1 12 6 24 9 28 6 3 -3 0 -6 -6 -6 -22 0
-12 -27 14 -39 16 -7 24 -17 20 -26 -3 -10 0 -12 11 -8 14 5 12 10 -10 29 -15
13 -27 26 -27 30 0 3 18 -10 41 -31 22 -20 47 -34 54 -31 10 3 12 0 8 -12 -5
-15 -3 -14 18 3 13 11 18 13 12 5 -19 -21 -16 -32 10 -28 25 3 61 -24 49 -37
-4 -5 -1 -5 6 -1 11 6 11 11 0 24 -11 15 -11 15 4 4 11 -9 18 -10 23 -2 10 15
25 2 18 -16 -5 -13 -7 -13 -14 -2 -5 7 -9 8 -9 2 0 -18 12 -24 26 -13 9 8 15
5 24 -10 6 -12 16 -21 23 -21 8 0 8 3 -2 9 -9 6 -10 11 -2 15 6 4 11 4 12 -1
0 -4 2 -18 3 -31 2 -13 -4 -29 -13 -35 -9 -7 -15 -19 -15 -27 1 -8 2 -21 3
-29 1 -10 4 -11 15 -2 11 9 16 9 22 -1 4 -7 4 -10 -1 -6 -4 4 -14 0 -22 -8 -8
-8 -18 -12 -22 -10 -4 3 -8 -4 -8 -15 -1 -11 2 -17 8 -14 5 4 9 2 9 -2 0 -5
-9 -14 -21 -21 -12 -8 -18 -9 -15 -3 4 5 2 12 -4 16 -5 3 -10 1 -10 -4 0 -6
-3 -10 -7 -10 -5 1 -10 0 -13 -1 -3 -1 -18 -4 -35 -6 -51 -6 -53 -7 -48 -21 4
-9 0 -11 -11 -7 -9 3 -16 1 -16 -4 0 -6 -9 -9 -20 -7 -11 2 -23 -1 -26 -7 -4
-6 -2 -8 4 -4 6 3 13 2 17 -4 3 -5 -3 -10 -14 -10 -10 0 -22 6 -25 13 -3 6 -3
2 0 -10 4 -19 2 -21 -28 -18 -24 3 -29 2 -18 -5 9 -6 11 -10 3 -10 -7 0 -10
-7 -7 -15 4 -10 0 -13 -15 -10 -12 2 -21 -1 -21 -6 0 -6 -4 -7 -10 -4 -5 3 -7
0 -4 -8 7 -20 -16 -33 -27 -16 -7 11 -9 11 -9 -3 0 -9 -3 -18 -7 -21 -5 -2 -2
-2 5 -1 6 2 12 -1 12 -6 0 -6 -7 -11 -15 -11 -8 -1 -19 -3 -25 -4 -5 -1 -13
-3 -16 -4 -4 0 -1 -7 5 -15 8 -10 9 -16 1 -21 -6 -3 -8 -10 -5 -15 3 -5 -3
-15 -15 -22 -11 -7 -20 -18 -20 -25 0 -6 -6 -14 -12 -16 -10 -4 -10 -6 0 -6
20 -2 14 -27 -10 -39 -13 -6 -17 -11 -9 -11 11 -1 11 -4 1 -16 -9 -10 -9 -15
-1 -15 6 0 11 5 11 10 0 6 5 10 10 10 6 0 5 -8 -2 -19 -7 -11 -16 -18 -20 -15
-4 3 -5 -3 -1 -12 5 -13 3 -15 -8 -9 -11 7 -12 6 -2 -7 7 -8 9 -19 5 -23 -4
-5 2 -5 13 -1 16 6 18 5 8 -5 -17 -17 -17 -34 0 -20 10 8 14 7 14 -3 0 -15
-14 -16 -34 -3 -8 5 -11 3 -8 -5 3 -7 15 -18 28 -23 16 -7 21 -17 18 -35 -1
-14 -8 -29 -15 -33 -6 -5 -2 -7 12 -4 17 4 21 2 13 -6 -10 -13 11 -52 22 -40
4 3 7 1 7 -6 0 -7 5 -9 13 -5 9 6 9 4 0 -7 -18 -18 -16 -34 2 -19 12 10 16 9
21 -3 3 -9 3 -21 -1 -27 -3 -5 1 -10 9 -10 9 0 16 -5 16 -11 0 -5 5 -7 10 -4
6 3 10 -3 10 -14 0 -11 5 -23 12 -27 7 -5 8 -2 3 7 -6 11 -5 11 5 2 7 -6 19
-9 28 -5 11 4 14 1 9 -12 -4 -11 -1 -19 11 -23 9 -3 24 -15 33 -26 12 -15 18
-17 24 -7 5 8 4 11 -1 7 -6 -3 -11 4 -11 16 -2 22 -2 22 10 2 6 -11 12 -23 13
-27 1 -5 2 -11 3 -15 1 -5 5 -2 10 5 6 10 11 9 22 -4 12 -16 12 -17 -1 -9 -12
6 -13 5 -3 -5 15 -16 46 -23 37 -9 -3 5 -11 6 -17 2 -7 -3 -3 3 7 15 20 23 36
31 18 9 -19 -22 9 -42 60 -42 31 0 48 -4 48 -12 0 -7 -6 -10 -14 -7 -8 3 -16
1 -20 -4 -8 -14 30 -7 51 9 16 12 17 12 6 -2 -9 -11 -10 -18 -1 -27 8 -8 8
-15 0 -25 -13 -15 -14 -34 -9 -137 2 -25 -2 -51 -8 -59 -7 -11 -7 -13 2 -8 9
6 11 -6 8 -43 -3 -39 0 -50 11 -50 9 0 12 -5 9 -10 -4 -6 -11 -7 -17 -4 -7 5
-8 2 -4 -5 5 -7 14 -10 21 -8 18 8 13 -36 -5 -45 -11 -5 -9 -7 7 -7 12 -1 23
-7 26 -13 3 -10 7 -10 20 0 13 11 15 10 13 -11 -2 -19 1 -23 15 -20 11 3 17 9
14 12 -2 4 2 8 10 8 8 0 11 -5 8 -10 -4 -6 0 -8 9 -4 9 3 21 0 27 -6 9 -9 11
-8 6 5 -7 18 9 19 35 3 8 -5 28 -10 45 -11 16 -1 31 -3 33 -3 1 -1 -2 -10 -8
-20 -8 -16 -7 -19 8 -16 9 1 26 -2 37 -8 18 -9 19 -9 5 8 -14 17 -14 17 6 7
12 -6 24 -8 28 -5 3 3 6 1 6 -5 0 -14 22 -12 32 3 5 6 8 5 8 -2 0 -7 6 -13 14
-13 8 0 16 -7 20 -15 3 -8 12 -12 21 -9 8 3 15 1 15 -6 0 -6 5 -8 10 -5 6 4 8
11 5 16 -13 19 6 8 35 -22 16 -18 30 -27 30 -21 0 6 -7 15 -16 20 -11 6 -13
11 -5 16 6 4 11 2 11 -4 0 -7 7 -10 15 -6 9 3 21 -5 31 -22 8 -15 13 -18 9 -8
-5 16 -3 17 10 6 10 -8 15 -9 15 -1 0 6 4 11 10 11 5 0 6 -8 3 -17 -6 -15 -4
-16 9 -5 12 10 18 10 23 1 5 -7 10 -8 14 -1 4 6 12 4 21 -6 13 -14 12 -15 -3
-9 -9 3 -17 2 -17 -3 0 -6 6 -10 13 -11 6 0 22 -2 34 -3 14 -2 20 2 16 8 -4 6
1 5 10 -3 14 -11 17 -11 18 0 0 8 4 5 9 -6 5 -11 9 -14 9 -8 1 9 7 8 20 -4 11
-9 17 -21 14 -27 -4 -6 1 -5 10 3 13 10 20 11 31 2 11 -10 15 -8 19 6 4 16 5
16 6 -2 1 -15 3 -17 10 -7 7 11 11 11 24 -2 17 -17 32 -22 23 -7 -3 5 5 8 18
7 13 0 22 -5 18 -10 -3 -5 3 -6 13 -2 14 5 16 4 6 -7 -9 -11 -8 -17 2 -26 14
-11 27 -5 27 13 0 6 -4 5 -9 -3 -6 -9 -11 -10 -15 -2 -4 6 -4 11 1 12 4 0 16
2 26 4 9 2 24 -6 32 -18 8 -12 15 -17 15 -11 0 6 15 10 33 10 24 -1 31 -5 29
-17 -1 -9 5 -23 15 -30 11 -9 14 -10 9 -1 -8 13 6 17 18 5 11 -11 46 -10 46 1
0 6 5 4 10 -4 9 -13 10 -13 10 0 0 13 2 13 9 1 5 -8 16 -11 25 -8 8 3 18 2 22
-4 4 -6 12 -6 22 3 14 10 15 10 5 -2 -7 -8 -13 -21 -12 -30 0 -10 2 -11 6 -2
2 6 9 12 14 12 6 0 7 -5 3 -12 -5 -7 -3 -8 7 -2 20 12 39 14 39 3 0 -5 7 -9
16 -9 9 0 12 5 8 13 -6 9 -5 9 8 0 8 -7 17 -10 21 -7 8 9 27 -32 19 -41 -4 -5
-1 -5 6 -1 7 4 10 12 7 17 -3 5 1 6 9 3 9 -3 13 -11 9 -18 -4 -6 1 -5 10 3 14
11 17 11 17 0 0 -10 3 -10 12 -1 15 15 28 15 28 1 0 -5 -4 -8 -8 -5 -5 3 -9
-1 -9 -8 0 -18 35 -15 48 4 9 12 10 10 6 -7 -4 -19 -2 -21 12 -14 11 6 23 5
35 -4 13 -10 25 -11 43 -4 19 7 24 6 20 -3 -2 -7 -10 -12 -16 -10 -7 1 -10 -2
-6 -8 5 -8 11 -7 21 1 11 9 14 9 14 0 0 -7 4 -10 9 -7 5 4 12 0 14 -6 4 -10 6
-10 6 0 1 7 -6 15 -14 18 -8 4 -12 10 -9 16 3 5 17 -4 31 -21 24 -29 27 -30
40 -13 8 9 12 12 9 5 -4 -6 -2 -14 4 -18 5 -3 10 -1 10 5 0 6 5 8 11 5 6 -4 8
-13 6 -19 -3 -7 1 -13 8 -13 7 0 10 9 8 21 -3 12 -1 17 4 11 13 -16 46 -19 37
-3 -4 7 2 5 14 -6 12 -10 19 -23 16 -27 -8 -14 -16 -10 -8 3 4 7 4 10 -1 6 -4
-4 -16 -3 -26 3 -11 5 -19 6 -19 1 0 -9 20 -18 58 -27 11 -3 16 8 13 28 0 4 4
7 10 7 6 0 8 -9 4 -20 -4 -11 -2 -20 4 -20 6 0 11 6 11 13 0 9 3 8 9 -2 5 -8
14 -10 21 -6 9 5 11 4 6 -3 -4 -7 -3 -12 3 -12 5 0 11 5 13 12 3 7 7 6 11 -5
3 -9 2 -17 -3 -17 -6 0 -10 -5 -10 -11 0 -8 5 -7 16 2 13 10 17 10 25 -2 5 -9
9 -10 9 -2 0 7 -7 16 -16 21 -11 6 -13 11 -5 16 6 4 11 2 11 -4 0 -6 5 -8 10
-5 6 4 10 3 9 -2 -4 -25 1 -37 12 -26 9 9 18 7 37 -5 15 -9 23 -12 19 -5 -4 6
-3 14 3 18 8 5 14 -13 12 -36 -1 -3 6 -6 13 -6 10 0 12 4 5 12 -8 9 -4 12 15
12 14 0 25 -4 25 -9 0 -5 -4 -7 -8 -4 -5 3 -9 -1 -9 -9 0 -11 4 -12 13 -4 9 7
15 5 23 -8 8 -14 10 -15 11 -3 0 9 -3 20 -7 26 -5 5 2 -1 15 -13 18 -18 27
-21 48 -13 33 13 43 12 24 -1 -12 -9 -10 -10 8 -6 19 5 22 2 18 -16 -3 -12 -3
-16 0 -9 3 6 11 9 17 5 21 -13 78 -13 71 0 -5 8 -3 8 7 -1 10 -9 10 -15 1 -24
-7 -7 -12 -16 -12 -22 0 -5 7 -1 15 10 8 10 15 15 15 11 0 -4 9 -3 21 4 19 10
20 8 15 -13 -3 -12 -3 -18 0 -11 4 8 13 9 30 3 17 -7 24 -6 24 3 0 7 3 8 8 2
8 -11 15 -13 65 -17 20 -1 34 -5 31 -9 -2 -4 -13 -6 -24 -4 -14 3 -17 -1 -13
-13 5 -11 8 -12 11 -4 3 10 7 10 20 0 9 -8 13 -8 9 -2 -4 7 0 14 8 18 8 3 17
0 21 -6 4 -7 3 -8 -4 -4 -7 4 -12 2 -12 -3 0 -6 21 -11 50 -11 28 0 50 -4 50
-10 0 -5 5 -10 11 -10 5 0 7 5 3 11 -4 7 2 6 17 -1 13 -7 28 -19 32 -26 5 -10
14 -11 32 -4 21 8 25 6 26 -8 0 -10 3 -12 6 -4 6 15 33 16 33 1 0 -5 -4 -8 -8
-5 -5 3 -9 -1 -9 -7 0 -15 34 -20 42 -6 3 5 0 7 -7 6 -7 -2 -10 -2 -5 0 4 3 4
9 1 15 -3 5 3 4 14 -3 12 -7 19 -16 16 -20 -2 -4 0 -10 6 -14 5 -3 10 2 11 12
0 10 3 13 6 6 2 -7 16 -13 29 -13 17 0 23 -4 18 -12 -5 -7 -3 -8 7 -2 21 13
49 15 49 3 0 -5 -4 -7 -10 -4 -6 3 -7 -1 -3 -10 5 -13 7 -14 14 -3 5 7 9 8 9
3 0 -15 41 -17 58 -3 10 9 12 8 10 -2 -2 -8 2 -14 7 -15 17 -1 36 -16 31 -24
-3 -4 1 -8 8 -8 15 0 15 21 1 34 -4 4 -5 2 0 -6 5 -10 4 -12 -4 -7 -16 10 -4
26 14 19 8 -3 15 -13 15 -22 0 -21 46 -26 68 -9 13 10 14 10 8 1 -4 -8 -2 -13
5 -13 6 0 18 -8 25 -18 12 -14 13 -15 8 -1 -3 10 0 20 7 25 7 4 10 3 5 -4 -3
-6 -2 -13 4 -17 6 -4 8 -10 6 -14 -3 -4 5 -7 17 -6 12 1 31 -2 42 -8 19 -10
19 -9 3 10 -10 11 -18 23 -18 28 0 5 10 -4 22 -21 19 -24 30 -29 66 -29 24 0
46 -4 49 -9 3 -5 1 -6 -5 -2 -7 4 -12 2 -12 -5 0 -6 8 -9 20 -6 11 3 20 2 20
-2 0 -4 6 -8 14 -8 8 0 12 7 9 16 -4 13 -2 13 6 -1 7 -10 20 -15 32 -13 16 3
20 0 16 -14 -2 -10 1 -18 9 -18 7 0 11 4 8 9 -3 4 -1 8 5 8 5 0 18 3 28 7 17
7 17 6 1 -11 -22 -21 -24 -33 -3 -16 8 7 15 8 15 3 0 -6 22 -9 50 -8 41 2 50
-1 48 -14 -2 -10 5 -16 18 -17 12 -1 27 -5 34 -9 10 -6 12 -3 6 10 -6 17 -5
18 11 3 12 -10 34 -15 66 -13 26 1 47 -2 47 -7 0 -5 5 -6 12 -2 7 4 8 3 4 -4
-5 -9 -13 -9 -26 -2 -27 15 -34 12 -15 -6 8 -9 22 -13 30 -10 8 3 17 1 21 -5
4 -6 12 -5 22 3 12 10 14 10 8 1 -4 -8 -1 -13 9 -13 10 0 13 5 9 13 -5 7 -1 7
10 -2 15 -13 19 -13 28 0 8 11 9 11 4 -3 -6 -21 -2 -22 25 -8 15 9 24 6 45
-15 26 -26 40 -33 28 -13 -5 7 -3 8 5 3 18 -11 90 -12 83 -1 -3 5 3 6 14 2 15
-6 17 -5 7 5 -7 7 -13 20 -13 29 1 12 2 12 11 -2 13 -23 39 -12 34 14 -3 14 0
18 10 15 14 -6 24 11 31 53 3 19 2 21 -5 10 -8 -11 -9 -8 -7 13 1 15 6 30 9
34 12 11 7 24 -5 17 -9 -5 -9 -2 1 9 10 13 10 17 1 17 -10 0 -10 3 0 15 6 8 8
20 4 26 -4 8 -3 9 4 5 7 -4 12 -2 12 5 0 7 3 10 6 7 3 -4 1 -15 -5 -27 -8 -14
-8 -22 1 -27 6 -4 8 -3 5 3 -4 6 0 13 8 17 8 3 12 12 9 21 -6 14 12 21 40 16
5 -1 6 6 2 15 -5 12 -2 15 10 10 15 -6 15 -4 3 10 -13 16 -12 16 10 4 22 -11
23 -10 17 5 -6 16 -4 16 11 4 11 -9 14 -10 9 -1 -5 8 -1 12 11 13 11 0 13 3 5
6 -6 2 -10 9 -7 13 3 5 12 7 19 4 8 -3 16 4 19 17 5 20 8 21 23 8 12 -9 15
-10 10 -2 -4 8 -1 13 8 13 19 0 21 16 4 24 -7 3 3 3 22 1 19 -2 29 -2 23 1 -7
3 -13 10 -13 15 0 6 5 7 10 4 6 -3 10 0 10 7 0 10 2 10 8 1 4 -7 13 -9 21 -4
7 5 10 14 7 20 -4 6 0 11 8 11 9 0 16 5 16 11 0 5 5 7 10 4 6 -4 8 -12 4 -18
-3 -7 1 -4 9 5 8 10 17 15 20 12 9 -10 28 36 21 49 -5 7 -1 7 9 -2 10 -8 20
-11 24 -7 3 3 2 6 -4 6 -6 0 -14 8 -18 18 -5 13 -4 14 6 5 10 -10 15 -9 26 5
8 9 12 11 8 4 -5 -9 0 -11 19 -8 29 5 60 -19 49 -37 -4 -7 1 -6 10 2 14 11 20
11 35 0 15 -13 16 -12 3 4 -8 10 -19 16 -26 13 -6 -2 -12 2 -12 9 0 11 5 11
28 -1 36 -18 48 -18 23 1 -18 15 -18 15 0 8 15 -5 17 -3 11 8 -8 12 -6 12 8 0
15 -11 17 -11 17 2 0 8 -5 17 -10 19 -6 2 -1 9 9 15 15 9 22 10 27 1 5 -7 3
-8 -6 -3 -9 5 -11 4 -6 -4 4 -6 11 -9 16 -6 11 7 9 45 -3 45 -4 0 -5 5 -1 11
4 8 9 7 15 -2 4 -7 6 -16 3 -20 -2 -4 0 -10 5 -13 5 -4 7 7 5 24 -3 18 -1 30
6 30 8 0 8 6 0 20 -8 15 -8 20 2 20 10 0 10 2 -1 9 -10 7 -10 10 -1 13 9 3 8
9 -4 21 -13 12 -14 17 -4 17 9 0 13 14 13 45 0 48 -3 52 -25 33 -12 -11 -12
-10 -2 3 6 9 9 19 5 23 -4 4 1 4 11 0 16 -6 17 -4 7 14 -8 15 -8 22 2 25 8 4
9 6 0 6 -8 1 -9 10 -3 31 6 22 5 34 -6 45 -13 13 -13 15 -1 15 12 0 13 7 7 35
-5 24 -4 35 4 36 6 0 2 4 -9 9 -14 6 -15 9 -5 9 9 1 16 10 16 20 0 11 -4 17
-8 15 -4 -3 -8 0 -8 5 0 6 5 11 12 11 6 0 3 9 -7 20 -10 11 -15 23 -12 27 4 3
7 1 7 -5 0 -7 4 -12 9 -12 13 0 4 52 -11 61 -10 7 -10 9 2 9 11 0 15 12 15 45
0 48 -3 52 -25 32 -12 -10 -12 -9 -2 4 6 9 9 19 5 23 -4 4 1 4 11 0 16 -6 17
-4 7 14 -8 15 -8 22 2 25 8 4 9 6 0 6 -8 1 -9 10 -3 31 6 22 5 34 -6 45 -13
13 -13 15 -1 15 12 0 13 7 7 35 -5 24 -4 35 4 36 6 0 2 4 -9 9 -14 6 -15 9 -5
9 9 1 16 10 16 20 0 11 -4 17 -8 15 -4 -3 -8 0 -8 5 0 6 5 11 12 11 6 0 3 9
-7 20 -10 11 -15 23 -12 27 4 3 7 1 7 -5 0 -7 4 -12 9 -12 13 0 4 52 -11 61
-10 7 -10 9 2 9 11 0 15 12 15 45 0 48 -3 52 -25 32 -12 -10 -12 -9 -2 4 6 9
9 19 5 23 -4 4 1 4 11 0 16 -6 17 -4 7 14 -8 15 -8 22 2 25 8 4 9 6 0 6 -8 1
-9 10 -3 31 6 22 5 34 -6 45 -13 13 -13 15 -1 15 12 0 13 7 7 35 -5 24 -4 35
4 36 6 0 2 4 -9 9 -14 6 -15 9 -5 9 9 1 16 10 16 20 0 11 -4 17 -8 15 -4 -3
-8 0 -8 5 0 6 5 11 12 11 6 0 3 9 -7 20 -10 11 -15 23 -12 27 4 3 7 1 7 -5 0
-7 4 -12 9 -12 13 0 4 52 -11 61 -10 7 -10 9 2 9 11 0 15 12 15 45 0 48 -3 52
-25 33 -12 -11 -12 -10 -2 3 6 9 9 19 5 23 -4 4 1 4 11 0 16 -6 17 -4 7 14 -8
15 -8 22 2 25 8 4 9 6 0 6 -8 1 -9 10 -3 31 6 22 5 34 -6 45 -13 13 -13 15 -1
15 12 0 13 7 7 35 -5 24 -4 35 4 36 6 0 2 4 -9 9 -14 6 -15 9 -5 9 9 1 16 10
16 20 0 11 -4 17 -8 15 -4 -3 -8 0 -8 5 0 6 5 11 12 11 6 0 3 9 -7 20 -10 11
-15 23 -12 27 4 3 7 1 7 -5 0 -7 4 -12 9 -12 13 0 4 52 -11 61 -10 7 -10 9 2
9 11 0 15 12 15 45 0 48 -3 52 -25 32 -12 -10 -12 -9 -2 4 6 9 9 19 5 23 -4 4
1 4 11 0 16 -6 17 -4 7 14 -8 15 -8 22 2 25 8 4 9 6 0 6 -8 1 -9 10 -3 31 6
22 5 34 -6 45 -13 12 -13 15 -2 15 18 0 15 59 -4 71 -10 7 -10 9 2 9 11 0 15
12 15 45 0 48 -3 52 -25 33 -12 -11 -12 -10 -2 3 6 9 9 19 5 23 -4 4 1 4 11 0
16 -6 17 -4 7 14 -8 15 -8 22 2 25 8 4 9 6 0 6 -8 1 -9 10 -3 31 6 22 5 34 -6
45 -13 13 -13 15 -1 15 12 0 13 7 7 35 -5 24 -4 35 4 36 6 0 2 4 -9 9 -14 6
-15 9 -5 9 9 1 16 10 16 20 0 11 -4 17 -8 15 -4 -3 -8 0 -8 5 0 6 5 11 12 11
6 0 3 9 -7 20 -10 11 -15 23 -12 27 4 3 7 1 7 -5 0 -7 4 -12 9 -12 13 0 4 52
-11 61 -10 7 -10 9 2 9 11 0 15 12 15 45 0 48 -3 52 -25 33 -12 -11 -12 -10
-2 3 6 9 9 19 5 23 -4 4 1 4 11 0 16 -6 17 -4 7 14 -8 15 -8 22 2 25 8 4 9 6
0 6 -8 1 -9 10 -3 31 6 22 5 34 -6 45 -13 13 -13 15 -1 15 12 0 13 7 7 35 -5
24 -4 35 4 36 6 0 2 4 -9 9 -14 6 -15 9 -5 9 9 1 16 10 16 20 0 11 -4 17 -8
15 -4 -3 -8 0 -8 5 0 6 5 11 12 11 6 0 3 9 -7 20 -10 11 -15 23 -12 27 4 3 7
1 7 -5 0 -7 4 -12 9 -12 13 0 4 52 -11 61 -10 7 -10 9 2 9 11 0 15 12 15 45 0
48 -3 52 -25 33 -12 -11 -12 -10 -2 3 6 9 9 19 5 23 -4 4 1 4 11 0 16 -6 17
-4 7 14 -8 15 -8 22 2 25 8 4 9 6 0 6 -8 1 -9 10 -3 31 6 22 5 34 -6 45 -13
12 -13 15 -2 15 18 0 15 59 -4 71 -10 7 -10 9 2 9 11 0 15 12 15 45 0 48 -3
52 -25 33 -12 -11 -12 -10 -2 3 6 9 9 19 5 23 -4 4 1 4 11 0 16 -6 17 -4 7 14
-8 15 -8 22 2 25 8 4 9 6 0 6 -8 1 -9 10 -3 31 6 22 5 34 -6 45 -13 13 -13 15
-1 15 12 0 13 7 7 35 -5 24 -4 35 4 36 6 0 2 4 -9 9 -14 6 -15 9 -5 9 9 1 16
10 16 20 0 11 -4 17 -8 15 -4 -3 -8 0 -8 5 0 6 5 11 12 11 6 0 3 9 -7 20 -10
11 -15 23 -12 27 4 3 7 1 7 -5 0 -7 4 -12 9 -12 13 0 4 52 -11 61 -10 7 -10 9
2 9 11 0 15 12 15 45 0 48 -3 52 -25 33 -12 -11 -12 -10 -2 3 6 9 9 19 5 23
-4 4 1 4 11 0 16 -6 17 -4 7 14 -8 15 -8 22 2 25 8 4 9 6 0 6 -8 1 -9 10 -3
31 6 22 5 34 -6 45 -13 13 -13 15 -1 15 12 0 13 7 7 35 -5 24 -4 35 4 36 6 0
2 4 -9 9 -14 6 -15 9 -5 9 20 1 20 52 1 75 -8 9 -11 19 -7 23 3 3 6 1 6 -5 0
-7 3 -12 8 -12 4 0 7 36 7 80 0 81 -5 95 -24 63 -6 -10 -11 -13 -11 -6 0 6 5
15 11 19 8 4 7 9 -2 16 -10 7 -8 8 6 4 20 -6 21 -2 19 61 -2 51 -7 70 -20 80
-11 8 -13 13 -5 13 7 0 9 5 6 10 -3 6 1 13 10 16 14 6 14 8 -2 20 -14 11 -14
13 -2 9 9 -4 16 0 16 8 0 9 -8 13 -21 11 -12 -3 -16 -2 -9 2 7 3 11 11 9 17
-1 7 -1 9 1 5 9 -16 21 -7 16 12 -3 11 -12 19 -21 18 -25 -5 -25 21 0 31 21 9
21 10 3 12 -11 1 -26 1 -32 0 -7 -1 -13 3 -13 9 0 5 8 10 18 10 14 0 15 2 2
10 -8 5 -17 6 -20 2 -13 -17 -28 -10 -23 11 3 12 1 18 -4 12 -12 -15 -33 -17
-33 -2 0 8 -4 7 -10 -3 -6 -10 -10 -11 -10 -2 0 6 -5 12 -11 12 -5 0 -8 -4 -5
-8 6 -10 -30 -9 -40 0 -3 4 -3 12 1 18 6 9 10 9 16 -1 7 -12 10 -12 21 0 8 9
9 11 1 7 -6 -3 -14 -2 -18 4 -4 6 -12 7 -18 3 -15 -9 -58 -4 -74 9 -10 8 -13
6 -13 -6 0 -10 4 -15 9 -11 5 3 12 2 15 -3 2 -4 -6 -8 -19 -8 -13 0 -23 2 -23
6 2 18 -4 23 -12 10 -8 -12 -10 -12 -10 5 0 17 -2 17 -10 5 -7 -11 -10 -11
-10 -2 0 7 -5 10 -10 7 -6 -4 -7 -12 -3 -18 5 -9 3 -9 -8 -1 -8 6 -26 10 -42
9 -23 -2 -26 1 -21 18 4 13 2 17 -5 13 -6 -4 -11 -15 -11 -24 0 -14 -2 -15 -9
-2 -6 8 -7 18 -4 24 3 5 1 6 -6 2 -6 -4 -9 -11 -6 -16 3 -5 0 -12 -6 -16 -8
-4 -9 -3 -5 4 4 7 1 12 -8 12 -9 0 -16 -5 -16 -11 0 -8 -6 -7 -17 2 -9 8 -18
12 -20 11 -3 -2 -7 -1 -10 2 -3 3 6 3 19 1 16 -3 25 0 25 9 0 10 -7 12 -27 6
-15 -4 -35 -3 -44 2 -16 9 -17 7 -12 -13 l7 -24 -14 23 c-7 12 -16 19 -21 15
-4 -4 -11 -1 -16 7 -8 12 -10 12 -10 -4 0 -13 -4 -16 -12 -9 -15 11 -48 11
-65 0 -6 -4 -14 -3 -18 3 -4 6 -11 8 -16 5 -5 -4 -9 1 -9 10 0 15 -1 15 -16 0
-14 -13 -19 -14 -25 -3 -7 10 -9 10 -9 -2 0 -11 -2 -12 -8 -3 -8 13 -29 12
-51 -1 -10 -6 -12 -5 -7 2 4 7 2 12 -5 12 -8 0 -8 4 -1 13 8 10 6 13 -7 13
-12 0 -17 -5 -13 -14 4 -11 -1 -11 -21 2 -24 16 -26 16 -30 -1 -4 -16 -5 -16
-6 -1 -1 12 -6 15 -18 11 -10 -4 -14 -2 -10 4 3 5 0 10 -8 10 -8 0 -12 -4 -9
-9 8 -13 -10 -10 -25 5 -11 10 -13 10 -7 0 4 -7 2 -13 -3 -13 -6 0 -11 6 -11
13 0 8 -3 8 -8 2 -14 -21 -129 -5 -116 16 3 5 -2 6 -11 3 -11 -5 -14 -2 -9 12
4 13 3 15 -3 6 -11 -14 -62 -13 -82 2 -11 8 -13 8 -7 -1 4 -7 3 -13 -1 -13 -5
0 -15 6 -22 13 -11 10 -12 9 -6 -3 8 -13 7 -13 -8 -1 -13 10 -17 10 -17 1 0
-9 -3 -10 -13 -1 -10 8 -17 7 -25 -1 -9 -9 -12 -7 -12 8 0 16 -2 17 -10 4 -5
-8 -10 -10 -10 -5 0 6 -5 3 -10 -5 -6 -10 -10 -11 -10 -2 0 6 -5 12 -11 12 -7
0 -18 8 -26 18 -13 15 -13 15 -4 -5 17 -34 12 -40 -10 -13 -11 14 -18 20 -15
14 7 -14 -32 -26 -40 -13 -3 5 0 8 7 7 6 -2 14 4 16 12 4 13 3 13 -6 0 -6 -8
-11 -11 -11 -6 0 5 -9 1 -20 -9 -15 -14 -23 -16 -31 -8 -6 6 -19 9 -28 6 -9
-4 -13 -3 -10 1 10 11 50 16 44 5 -4 -5 -2 -9 3 -9 11 0 25 30 17 38 -3 3 -5
0 -5 -5 0 -13 -18 -12 -39 1 -9 6 -12 5 -8 -1 4 -6 -8 -10 -29 -11 -20 -1 -32
3 -29 8 3 6 1 10 -4 10 -6 0 -11 -5 -11 -12 0 -6 -9 -3 -20 7 -16 14 -19 15
-15 4 4 -10 0 -16 -10 -16 -8 0 -15 6 -15 13 0 7 -4 16 -10 19 -5 3 -7 0 -4
-8 7 -20 -16 -33 -27 -16 -5 8 -9 10 -9 4 0 -5 -4 -5 -8 2 -6 10 -14 9 -35 -2
-24 -12 -27 -12 -27 1 0 8 4 13 9 10 5 -3 15 2 22 12 13 15 12 16 -3 4 -13
-10 -17 -10 -21 0 -4 10 -6 10 -6 -1 -1 -11 -4 -11 -18 0 -11 10 -14 10 -9 2
4 -8 2 -13 -4 -13 -6 0 -9 -4 -6 -8 3 -5 -1 -9 -9 -9 -10 0 -11 5 -4 18 9 18
-5 38 -15 20 -8 -13 -57 -11 -49 3 3 6 0 6 -8 -1 -7 -7 -17 -13 -22 -13 -4 0
-5 6 -1 13 6 10 4 10 -7 0 -7 -7 -17 -13 -22 -13 -4 0 -5 6 -1 13 5 8 2 8 -9
-2 -14 -11 -17 -11 -17 0 0 11 -2 11 -10 -1 -8 -12 -10 -12 -10 -1 0 8 -3 11
-7 8 -3 -4 -11 1 -18 10 -9 13 -14 13 -20 3 -5 -9 -4 -11 3 -6 7 4 12 2 12 -4
0 -6 -8 -10 -17 -8 -10 1 -24 -1 -32 -6 -9 -6 -12 -5 -7 2 4 6 -6 10 -26 8
-18 -1 -43 1 -55 6 -14 4 -23 3 -27 -5 -3 -9 -5 -8 -5 1 -1 7 -6 10 -11 7 -5
-3 -10 -1 -10 5 0 6 12 8 29 5 17 -3 33 -1 36 5 3 5 0 7 -8 4 -8 -3 -18 -1
-22 5 -4 8 -12 8 -25 1 -13 -7 -21 -7 -25 1 -5 6 -11 4 -20 -7 -11 -16 -13
-16 -24 2 -11 19 -11 19 -26 0 -13 -17 -15 -17 -15 -4 0 9 -5 20 -12 24 -7 4
-8 3 -4 -4 4 -7 2 -12 -4 -12 -6 0 -8 -5 -4 -12 4 -7 3 -8 -4 -4 -7 4 -12 15
-13 24 0 10 -3 12 -5 5 -3 -7 -12 -9 -21 -6 -12 5 -14 3 -8 -8 5 -8 -2 -5 -14
5 -22 20 -22 20 -16 0 6 -18 6 -18 -8 -1 -15 18 -33 24 -23 8 4 -5 -2 -8 -11
-7 -10 2 -21 -2 -25 -8 -5 -8 -8 -7 -8 2 0 7 -5 10 -12 6 -6 -4 -8 -3 -4 4 3
6 15 9 26 7 14 -3 17 1 13 13 -4 10 -8 12 -11 4 -3 -9 -9 -9 -24 -1 -15 8 -19
8 -14 0 4 -6 2 -11 -4 -11 -6 0 -8 -4 -5 -10 10 -16 -1 -11 -16 7 -9 11 -10
14 -2 9 9 -5 11 -2 6 9 -4 12 -8 13 -13 5 -5 -7 -13 -9 -20 -5 -9 5 -11 4 -6
-3 5 -8 2 -10 -8 -6 -9 3 -13 10 -10 15 3 5 1 9 -5 9 -5 0 -12 -6 -15 -12 -5
-10 -7 -10 -12 0 -4 9 -9 10 -19 2 -9 -8 -15 -8 -20 0 -3 5 -12 10 -18 10 -7
0 -6 -4 3 -11 15 -10 6 -9 -54 8 -10 3 -16 1 -13 -4 3 -5 -3 -9 -13 -9 -10 0
-17 3 -15 6 6 10 -89 6 -96 -3 -4 -5 -10 -4 -13 2 -4 6 -2 11 4 11 6 0 8 5 4
12 -4 7 -3 8 5 4 6 -4 24 -9 39 -12 25 -4 26 -3 9 10 -11 8 -25 12 -33 9 -8
-3 -14 1 -14 8 0 8 -7 4 -15 -8 -8 -12 -23 -20 -32 -18 -10 2 -21 4 -25 4 -5
1 -8 6 -8 12 0 8 4 8 13 2 16 -12 38 -11 35 2 -2 5 -25 10 -51 11 -30 1 -43
-2 -35 -7 11 -7 11 -9 0 -9 -7 0 -20 7 -28 15 -16 15 -48 10 -38 -7 4 -6 -5
-3 -19 6 -23 16 -25 16 -31 -1 -6 -15 -9 -14 -30 8 -13 13 -22 29 -19 34 2 6
-4 0 -13 -12 -9 -13 -23 -23 -30 -23 -8 0 -14 -5 -14 -12 0 -6 -7 -3 -15 8
-11 14 -14 15 -15 4 0 -10 -6 -6 -18 10 -17 26 -53 33 -79 17 -7 -5 -13 -4
-13 0 0 11 -71 11 -87 0 -6 -4 -15 -2 -18 4 -4 5 -13 8 -21 5 -17 -7 -18 5 -1
24 10 12 9 12 -3 3 -8 -6 -23 -9 -33 -7 -12 1 -17 -2 -14 -10 4 -11 -22 -14
-43 -6 -3 1 -9 2 -14 1 -5 -1 -6 5 -2 14 3 9 2 13 -4 10 -6 -3 -10 0 -10 7 -1
7 -7 2 -14 -11 -10 -18 -15 -20 -19 -10 -5 12 -7 12 -17 -1 -9 -12 -10 -11 -5
6 4 17 1 21 -17 20 -13 -1 -29 -6 -37 -10 -10 -6 -12 -5 -7 2 4 7 2 12 -3 12
-6 0 -11 -6 -11 -12 0 -7 -5 -5 -11 5 -6 9 -15 14 -21 11 -14 -9 -167 -11
-162 -3 2 4 -6 15 -18 25 -12 11 -18 13 -14 7 4 -7 2 -13 -3 -13 -6 0 -11 5
-11 11 0 8 -5 8 -15 -1 -11 -9 -15 -9 -15 -1 0 8 -4 8 -14 -1 -8 -7 -12 -16
-10 -19 2 -3 -4 -6 -12 -6 -10 0 -11 4 -4 11 5 5 10 15 10 20 0 6 -5 5 -12 -2
-14 -14 -32 -16 -24 -3 7 10 -46 7 -64 -4 -9 -5 -11 -4 -6 3 10 16 -7 15 -23
0 -12 -11 -13 -10 -7 6 5 16 4 17 -9 6 -10 -8 -15 -9 -15 -2 0 6 -7 9 -15 6
-8 -4 -12 -11 -8 -18 4 -6 -1 -5 -10 3 -9 7 -14 17 -11 22 3 5 0 9 -5 9 -6 0
-11 -7 -11 -15 0 -13 -4 -14 -20 -5 -15 8 -20 8 -20 -1 0 -9 -3 -9 -14 0 -10
8 -16 9 -21 2 -4 -7 -20 -2 -44 13 -29 18 -41 22 -50 13 -7 -7 -11 -7 -11 -1
0 6 -7 11 -15 11 -13 0 -19 -9 -17 -27 0 -3 -8 -6 -18 -6 -10 0 -16 6 -13 13
3 7 10 10 16 6 5 -3 7 -2 4 4 -7 11 -66 11 -84 0 -6 -4 -14 -1 -17 5 -5 10 -7
10 -12 0 -5 -10 -9 -10 -22 0 -12 10 -14 10 -8 1 4 -7 3 -13 -1 -13 -5 0 -15
6 -22 13 -11 10 -13 9 -7 -1 8 -14 -19 -12 -44 3 -13 8 -13 7 -1 -8z m300 -11
c10 -12 9 -14 -6 -12 -10 2 -21 -2 -25 -8 -5 -8 -8 -7 -8 2 0 7 -4 10 -10 7
-5 -3 -10 -1 -10 5 0 7 7 10 15 7 8 -4 17 -2 20 3 8 13 10 13 24 -4z m451 -48
c0 -4 -16 -7 -35 -6 -20 1 -31 5 -24 9 14 9 59 7 59 -3z m270 -24 c0 -8 -19
-13 -24 -6 -3 5 1 9 9 9 8 0 15 -2 15 -3z m390 -49 c7 -9 8 -15 2 -15 -5 0
-12 7 -16 15 -3 8 -4 15 -2 15 2 0 9 -7 16 -15z m-30 -5 c0 -5 -2 -10 -4 -10
-3 0 -8 5 -11 10 -3 6 -1 10 4 10 6 0 11 -4 11 -10z m-1530 -10 c0 -5 -5 -10
-11 -10 -5 0 -7 5 -4 10 3 6 8 10 11 10 2 0 4 -4 4 -10z m1690 0 c0 -5 -4 -10
-10 -10 -5 0 -10 5 -10 10 0 6 5 10 10 10 6 0 10 -4 10 -10z m200 -44 c0 -3
-4 -8 -10 -11 -5 -3 -10 -1 -10 4 0 6 5 11 10 11 6 0 10 -2 10 -4z m1130 -90
c0 -2 -8 -10 -17 -17 -16 -13 -17 -12 -4 4 13 16 21 21 21 13z m-3120 -50 c0
-2 -8 -10 -17 -17 -16 -13 -17 -12 -4 4 13 16 21 21 21 13z m3841 -63 c11 -15
11 -16 -1 -6 -9 9 -17 9 -26 2 -8 -7 -14 -6 -20 2 -4 8 -3 9 4 5 7 -4 12 -2
12 3 0 17 16 13 31 -6z m264 -32 c3 -5 2 -12 -3 -15 -5 -3 -9 1 -9 9 0 17 3
19 12 6z m710 -80 c3 -5 0 -13 -6 -17 -7 -4 -9 -3 -5 4 3 5 0 13 -6 15 -9 4
-10 6 -1 6 6 1 14 -3 18 -8z m-4875 -115 c-7 -7 -13 -7 -20 0 -6 6 -3 10 10
10 13 0 16 -4 10 -10z m0 -18 c23 14 42 16 20 2 -12 -8 -12 -10 -1 -10 11 0
11 -3 1 -15 -7 -8 -8 -15 -3 -15 5 0 9 -10 7 -22 -1 -13 -3 -27 -3 -31 -1 -5
-5 -6 -10 -2 -5 3 -13 1 -16 -5 -4 -6 -3 -10 2 -9 19 3 33 -2 33 -12 0 -5 -4
-8 -8 -5 -4 2 -8 -4 -8 -15 0 -10 4 -19 9 -19 4 0 5 -4 2 -10 -15 -24 -13 -54
3 -67 16 -12 16 -13 0 -7 -20 7 -24 -6 -7 -23 8 -8 4 -15 -13 -28 l-23 -17 25
7 25 8 -19 -22 c-17 -19 -17 -21 -3 -15 15 5 16 3 8 -18 -5 -14 -6 -31 -1 -39
6 -9 3 -20 -8 -33 -9 -11 -12 -16 -5 -13 7 5 9 0 6 -13 -5 -19 -6 -20 -20 -3
-8 10 -12 13 -9 6 5 -8 -6 -11 -32 -10 -24 1 -39 6 -39 14 0 9 4 10 13 2 12
-10 12 -7 5 30 -1 2 -8 -2 -17 -10 -13 -10 -17 -10 -24 0 -5 10 -9 10 -15 1
-5 -8 -11 -6 -22 7 -8 10 -12 13 -9 6 4 -6 1 -15 -6 -19 -7 -4 -10 -3 -5 1 4
5 -1 18 -10 29 -12 14 -13 17 -3 9 11 -8 20 -9 30 -1 12 8 12 9 -2 4 -10 -3
-20 -1 -22 3 -3 5 -17 7 -31 6 -17 -2 -23 0 -18 8 13 21 11 34 -6 34 -42 0
-44 2 -30 20 12 15 12 16 -3 10 -13 -4 -16 -1 -13 14 2 10 7 24 10 29 4 6 3
10 -2 9 -4 -1 -17 0 -28 1 -13 1 -15 3 -6 7 11 5 11 7 0 14 -12 7 -12 10 0 21
10 10 12 10 7 1 -10 -19 -1 -16 15 4 10 11 10 14 2 9 -8 -4 -13 -2 -13 4 0 6
-4 8 -10 5 -6 -3 -7 1 -3 10 3 9 9 13 12 8 14 -19 27 -10 25 18 -1 16 2 27 6
24 5 -3 15 -2 24 1 14 5 14 9 4 22 -11 13 -9 15 15 10 20 -4 30 0 37 13 7 12
6 19 -3 22 -13 6 35 11 68 7 17 -2 18 0 5 16 -13 15 -13 16 -1 9 11 -6 13 -4
7 10 -5 15 -4 16 9 5 8 -7 12 -17 8 -23 -3 -6 -1 -7 6 -3 6 4 9 12 6 17 -4 5
3 9 14 9 12 0 21 6 21 13 0 8 4 7 10 -3 8 -12 13 -13 30 -2z m-435 -46 c-3 -3
-11 0 -18 7 -9 10 -8 11 6 5 10 -3 15 -9 12 -12z m5516 -99 c13 -16 12 -17 -3
-4 -10 7 -18 15 -18 17 0 8 8 3 21 -13z m3 -51 c3 -5 -1 -9 -9 -9 -8 0 -12 4
-9 9 3 4 7 8 9 8 2 0 6 -4 9 -8z m-5368 -78 c-3 -9 -6 -18 -6 -20 0 -2 -5 -4
-11 -4 -8 0 -9 4 0 13 6 8 8 17 4 20 -3 4 -1 7 6 7 8 0 11 -6 7 -16z m5370
-68 c1 -10 -4 -12 -14 -8 -11 4 -12 7 -4 10 10 3 10 7 0 20 -10 14 -10 15 2 5
8 -7 15 -19 16 -27z m-5309 -12 c-3 -3 -12 -4 -19 -1 -8 3 -5 6 6 6 11 1 17
-2 13 -5z m-230 -30 c-3 -3 -12 -4 -19 -1 -8 3 -5 6 6 6 11 1 17 -2 13 -5z
m88 -116 c5 4 5 1 1 -6 -6 -10 -11 -10 -22 -1 -8 6 -14 14 -14 16 0 3 6 0 13
-6 8 -6 18 -7 22 -3z m5439 -78 c-6 -6 -10 -3 -10 10 0 13 4 16 10 10 7 -7 7
-13 0 -20z m1 -60 c3 -6 -1 -7 -9 -4 -18 7 -21 14 -7 14 6 0 13 -4 16 -10z
m-5078 -39 c8 8 13 7 18 -2 5 -7 4 -10 -3 -5 -6 3 -15 -1 -20 -9 -7 -13 -10
-11 -20 12 -11 24 -10 26 1 11 10 -12 17 -14 24 -7z m5077 -381 c-6 -6 -10 -3
-10 10 0 13 4 16 10 10 7 -7 7 -13 0 -20z m-5069 -65 c21 4 26 3 15 -4 -8 -5
-17 -8 -21 -5 -4 2 -12 -3 -18 -10 -9 -11 -9 -16 0 -22 8 -4 9 -3 5 4 -5 8 0
12 13 12 12 0 21 -5 21 -11 0 -5 -5 -7 -12 -3 -7 5 -8 3 -2 -7 11 -17 15 -121
5 -115 -4 3 -8 -1 -8 -9 0 -8 3 -12 7 -10 4 2 6 -21 5 -51 0 -30 3 -58 7 -61
5 -2 5 -10 0 -16 -6 -7 -8 -31 -6 -55 2 -29 0 -41 -7 -36 -8 4 -8 0 0 -14 15
-28 14 -37 -3 -23 -11 9 -15 8 -20 -5 -4 -10 -11 -13 -19 -8 -6 5 -32 9 -56 9
-39 -1 -45 2 -53 27 -6 15 -14 28 -20 28 -5 0 -6 -4 -3 -10 3 -5 2 -10 -3 -10
-14 0 -22 27 -15 48 5 14 3 13 -10 -3 l-16 -20 -1 20 c0 17 -2 17 -10 5 -7
-11 -10 -7 -10 18 0 25 -4 32 -20 32 -23 0 -25 10 -7 29 10 11 9 12 -2 6 -11
-6 -13 -4 -8 8 3 9 2 19 -4 22 -5 4 -3 13 7 22 10 10 12 19 5 26 -12 12 -3 37
15 37 8 0 14 5 14 11 0 5 6 7 13 3 10 -6 10 -4 0 7 -16 16 -17 29 -2 29 5 0 7
-6 3 -12 -6 -10 -4 -10 8 0 9 7 18 9 20 5 3 -4 3 -2 2 5 -2 6 -1 19 2 27 5 13
9 13 22 3 13 -11 14 -11 7 1 -6 11 -3 13 13 9 16 -5 20 -2 17 13 -2 10 1 22 7
25 7 4 8 2 4 -4 -4 -7 -2 -12 4 -12 6 0 8 -6 4 -12 -4 -8 -3 -10 2 -5 5 5 9
14 9 20 0 7 13 12 28 11 27 -1 27 -1 10 20 -10 12 -11 15 -3 9 20 -18 30 -16
24 5 -4 11 -3 13 3 5 5 -7 21 -10 38 -8z m5070 5 c3 -6 -1 -7 -9 -4 -18 7 -21
14 -7 14 6 0 13 -4 16 -10z m1 -241 c3 -6 1 -16 -6 -22 -10 -9 -11 -9 -5 2 4
8 2 17 -6 22 -9 6 -10 9 -2 9 6 0 15 -5 19 -11z m-1 -79 c3 -6 -1 -7 -9 -4
-18 7 -21 14 -7 14 6 0 13 -4 16 -10z m-5324 -23 c-10 -9 -11 -8 -5 6 3 10 9
15 12 12 3 -3 0 -11 -7 -18z m-181 -51 c0 -2 -8 -10 -17 -17 -16 -13 -17 -12
-4 4 13 16 21 21 21 13z m235 -6 c3 -5 1 -10 -4 -10 -6 0 -11 5 -11 10 0 6 2
10 4 10 3 0 8 -4 11 -10z m179 -61 c4 6 13 8 22 4 12 -5 12 -7 -3 -18 -13 -9
-22 -10 -30 -3 -9 7 -13 7 -13 -1 0 -8 -4 -8 -14 1 -17 16 2 32 20 17 8 -7 14
-7 18 0z m-254 -125 c0 -8 -5 -12 -10 -9 -6 4 -8 11 -5 16 9 14 15 11 15 -7z
m5344 -154 c-6 -6 -10 -3 -10 10 0 13 4 16 10 10 7 -7 7 -13 0 -20z m1 -60 c3
-6 -1 -7 -9 -4 -18 7 -21 14 -7 14 6 0 13 -4 16 -10z m-5060 -40 c-3 -5 -11
-10 -16 -10 -6 0 -7 5 -4 10 3 6 11 10 16 10 6 0 7 -4 4 -10z m-35 -242 c0 -6
-3 -8 -7 -5 -3 4 -11 2 -18 -3 -8 -7 -12 -6 -12 3 0 7 9 14 19 14 10 1 18 -3
18 -9z m-29 -22 c23 14 57 13 63 -1 3 -10 0 -12 -12 -8 -13 5 -11 0 6 -19 13
-14 20 -28 15 -31 -5 -3 -9 -49 -8 -101 1 -79 -1 -93 -12 -84 -8 6 -10 14 -5
17 11 8 12 41 0 41 -11 0 -6 23 7 32 6 5 5 8 -2 8 -7 0 -13 5 -13 11 0 5 4 8
8 5 5 -3 9 1 9 9 0 10 -4 12 -12 5 -21 -17 -12 -119 12 -146 12 -14 16 -24 10
-25 -7 0 -6 -3 2 -6 10 -4 8 -9 -9 -18 -18 -10 -24 -22 -25 -53 -1 -27 3 -38
11 -35 7 2 15 -1 20 -8 4 -8 3 -10 -4 -5 -7 4 -12 2 -12 -4 0 -6 -5 -8 -12 -4
-7 4 -8 3 -4 -5 4 -7 17 -9 29 -6 19 5 20 5 4 -5 -9 -6 -22 -8 -29 -4 -8 5 -9
2 -4 -11 6 -15 4 -16 -10 -4 -9 7 -29 12 -44 11 -16 -1 -32 3 -36 9 -4 8 1 9
17 5 13 -3 18 -3 12 0 -7 3 -13 13 -14 22 0 11 -2 13 -6 4 -4 -10 -8 -10 -21
0 -13 11 -15 11 -10 -3 4 -9 1 -16 -7 -16 -8 0 -13 5 -12 11 1 6 -4 10 -10 8
-7 -1 -13 3 -13 9 0 5 -5 7 -10 4 -6 -4 -10 -3 -9 2 4 26 -2 34 -23 28 -16 -4
-19 -3 -9 3 9 6 9 11 2 13 -6 2 -12 16 -13 31 -1 15 -5 26 -8 26 -21 -2 -26
10 -28 67 -3 61 -1 65 20 66 l23 2 -23 4 c-27 5 -24 26 4 31 10 2 24 9 29 14
7 8 6 9 -1 5 -8 -5 -11 2 -10 18 1 23 2 23 13 9 12 -16 13 -16 19 -1 3 9 11
14 18 10 6 -4 5 1 -3 10 -8 10 -9 17 -3 17 6 0 14 -4 17 -10 3 -5 12 -10 18
-9 9 0 9 2 0 6 -7 2 -13 9 -13 14 0 6 5 7 10 4 6 -3 10 1 10 9 0 15 11 20 37
17 6 -1 15 4 18 10 6 8 10 8 15 -1 5 -8 13 -9 21 -4z m5123 -116 c-6 -6 -10
-3 -10 10 0 13 4 16 10 10 7 -7 7 -13 0 -20z m1 -60 c3 -6 -1 -7 -9 -4 -18 7
-21 14 -7 14 6 0 13 -4 16 -10z m-5356 -47 c6 -12 7 -24 3 -27 -5 -3 -9 0 -9
7 0 7 -4 21 -8 32 -10 25 -2 18 14 -12z m-192 -63 c-1 -11 -4 -20 -8 -20 -10
0 -19 27 -12 34 12 12 22 5 20 -14z m228 -28 c-3 -3 -11 0 -18 7 -9 10 -8 11
6 5 10 -3 15 -9 12 -12z m256 -19 c0 -5 2 -18 3 -30 2 -13 -3 -23 -9 -23 -6 0
-12 7 -12 15 0 8 5 15 10 15 5 0 4 7 -3 15 -9 10 -9 15 -1 15 6 0 11 -3 12 -7z
m5065 -84 c3 -6 1 -16 -6 -22 -10 -9 -11 -9 -5 2 4 8 2 17 -6 22 -9 6 -10 9
-2 9 6 0 15 -5 19 -11z m-1 -79 c3 -6 -1 -7 -9 -4 -18 7 -21 14 -7 14 6 0 13
-4 16 -10z m-5047 -284 c-2 -1 -12 -8 -22 -16 -18 -14 -18 -14 -6 7 8 12 18
19 23 16 4 -3 7 -6 5 -7z m5046 -136 c-6 -6 -10 -3 -10 10 0 13 4 16 10 10 7
-7 7 -13 0 -20z m1 -60 c3 -6 -1 -7 -9 -4 -18 7 -21 14 -7 14 6 0 13 -4 16
-10z m-5345 -24 c0 -3 -4 -8 -10 -11 -5 -3 -10 -1 -10 4 0 6 5 11 10 11 6 0
10 -2 10 -4z m243 -105 c5 -1 6 -5 2 -10 -3 -5 -1 -12 4 -15 5 -4 7 -19 5 -35
-4 -26 -2 -29 18 -25 22 4 22 4 3 -6 -17 -9 -20 -22 -21 -84 -1 -69 0 -73 20
-69 21 3 21 3 -1 -8 -20 -10 -21 -18 -19 -105 1 -52 -2 -94 -6 -94 -5 0 -3 -6
4 -14 7 -8 17 -11 22 -8 5 3 6 0 2 -6 -5 -9 -13 -9 -26 -2 -13 7 -21 7 -26 -2
-5 -7 -3 -8 6 -3 9 5 11 4 6 -4 -9 -15 -37 4 -33 22 1 7 -4 11 -10 9 -7 -1
-13 2 -13 6 0 4 -10 8 -22 9 -44 2 -77 7 -76 13 2 21 -5 53 -9 43 -2 -7 -9
-13 -14 -13 -4 0 -5 7 -2 17 5 12 3 14 -7 8 -10 -6 -12 -4 -7 8 7 19 -8 32
-19 16 -5 -8 -3 -9 6 -4 9 5 11 4 6 -4 -12 -18 -28 -2 -20 21 4 14 2 18 -5 14
-7 -5 -11 5 -11 28 0 20 -5 36 -11 36 -5 0 -8 -4 -5 -8 3 -5 -1 -9 -8 -9 -7 0
-13 6 -13 13 0 7 3 13 6 12 20 -2 31 3 26 12 -3 6 0 10 7 11 10 0 10 2 1 6
-10 4 -10 9 -1 26 7 12 12 25 13 28 0 3 8 13 18 23 15 15 16 21 5 34 -10 12
-10 14 0 8 7 -4 12 -1 12 9 0 12 4 14 19 6 15 -9 18 -7 17 7 -1 11 6 17 20 16
13 0 21 6 20 15 -1 10 8 15 26 15 31 1 44 11 27 22 -8 5 -10 3 -4 -6 5 -9 4
-11 -4 -6 -16 11 -3 26 16 19 10 -4 14 -2 10 4 -3 5 3 9 16 7 12 -1 26 -3 30
-3z m34 -28 c-11 -10 -26 8 -20 23 5 15 7 14 15 -1 6 -9 7 -19 5 -22z m-397
23 c0 -3 -4 -8 -10 -11 -5 -3 -10 -1 -10 4 0 6 5 11 10 11 6 0 10 -2 10 -4z
m419 -39 c-2 -2 -11 -8 -20 -15 -12 -9 -16 -9 -16 1 0 7 9 14 20 14 11 1 18 1
16 0z m-16 -72 c-3 -9 -8 -14 -10 -11 -3 3 -2 9 2 15 9 16 15 13 8 -4z m-253
-20 c-7 -8 -17 -15 -23 -15 -6 0 -2 7 9 15 25 19 30 19 14 0z m257 -29 c1 -12
-1 -15 -4 -8 -3 6 -8 10 -12 8 -4 -3 -8 1 -8 8 0 22 23 14 24 -8z m-283 -5 c3
-5 -2 -15 -12 -22 -15 -12 -16 -12 -5 2 7 9 10 19 6 22 -3 4 -4 7 0 7 3 0 8
-4 11 -9z m276 -32 c0 -5 -4 -9 -8 -9 -5 0 -9 7 -9 15 0 8 4 12 9 9 4 -3 8 -9
8 -15z m-295 -30 c-4 -5 -12 -9 -18 -8 -9 0 -8 2 1 6 6 2 9 10 6 15 -4 7 -2 8
5 4 6 -4 9 -12 6 -17z m-191 -7 c3 -5 -1 -9 -9 -9 -8 0 -12 4 -9 9 3 4 7 8 9
8 2 0 6 -4 9 -8z m5550 -52 c-6 -6 -10 -3 -10 10 0 13 4 16 10 10 7 -7 7 -13
0 -20z m-5054 -6 c0 -2 -7 -4 -15 -4 -8 0 -15 4 -15 10 0 5 7 7 15 4 8 -4 15
-8 15 -10z m-5 -24 c-3 -5 -12 -10 -18 -10 -7 0 -6 4 3 10 19 12 23 12 15 0z
m5060 -30 c3 -6 -1 -7 -9 -4 -18 7 -21 14 -7 14 6 0 13 -4 16 -10z m-5065 -40
c0 -5 -2 -10 -4 -10 -3 0 -8 5 -11 10 -3 6 -1 10 4 10 6 0 11 -4 11 -10z
m-440 -26 c0 -8 -19 -13 -24 -6 -3 5 1 9 9 9 8 0 15 -2 15 -3z m439 -22 c7
-13 6 -19 -2 -19 -7 0 -13 9 -13 19 0 10 1 18 3 18 1 0 7 -8 12 -18z m-89 -36
c-7 -7 -14 -6 -21 1 -9 9 -7 12 9 10 14 -1 18 -5 12 -11z m5154 -296 c-6 -6
-10 -3 -10 10 0 13 4 16 10 10 7 -7 7 -13 0 -20z m-5058 -28 c1 -7 0 -8 -3 -2
-2 5 -9 8 -14 4 -5 -3 -9 0 -9 6 0 15 23 7 26 -8z m-10 -39 c-2 -10 2 -22 8
-26 7 -6 6 -7 -4 -4 -8 2 -14 10 -12 16 1 6 -3 11 -9 11 -5 0 -7 5 -4 10 10
16 23 11 21 -7z m5069 7 c3 -6 -1 -7 -9 -4 -18 7 -21 14 -7 14 6 0 13 -4 16
-10z m-5060 -80 c3 -6 -1 -7 -9 -4 -18 7 -21 14 -7 14 6 0 13 -4 16 -10z m-11
-40 c-6 -6 -10 -3 -10 10 0 13 4 16 10 10 7 -7 7 -13 0 -20z m15 -47 c0 -11
-3 -13 -6 -5 -2 6 -10 9 -15 6 -7 -4 -8 -2 -4 4 11 18 26 14 25 -5z m-3 -41
c1 -7 0 -8 -3 -2 -2 5 -9 8 -14 4 -5 -3 -9 0 -9 6 0 15 23 7 26 -8z m5058
-212 c-6 -6 -10 -3 -10 10 0 13 4 16 10 10 7 -7 7 -13 0 -20z m1 -60 c3 -6 -1
-7 -9 -4 -18 7 -21 14 -7 14 6 0 13 -4 16 -10z m-4345 -4 c0 -2 -7 -9 -15 -16
-13 -11 -14 -10 -9 4 5 14 24 23 24 12z m100 -47 c0 -6 -4 -7 -10 -4 -5 3 -10
11 -10 16 0 6 5 7 10 4 6 -3 10 -11 10 -16z m35 11 c-3 -5 -12 -10 -18 -10 -7
0 -6 4 3 10 19 12 23 12 15 0z m705 -210 c0 -5 -5 -10 -11 -10 -5 0 -7 5 -4
10 3 6 8 10 11 10 2 0 4 -4 4 -10z m81 -17 c13 -16 12 -17 -3 -4 -17 13 -22
21 -14 21 2 0 10 -8 17 -17z m3424 -13 c3 -5 1 -10 -4 -10 -6 0 -11 5 -11 10
0 6 2 10 4 10 3 0 8 -4 11 -10z m-2785 -156 c0 -8 -19 -13 -24 -6 -3 5 1 9 9
9 8 0 15 -2 15 -3z m2512 -11 c-6 -2 -10 -8 -8 -12 3 -4 -1 -8 -9 -8 -8 0 -15
4 -15 8 0 8 19 17 35 17 6 0 4 -2 -3 -5z m-2418 -24 c-3 -5 -10 -7 -15 -3 -5
3 -7 10 -3 15 3 5 10 7 15 3 5 -3 7 -10 3 -15z m146 -29 c0 -5 -2 -10 -4 -10
-3 0 -8 5 -11 10 -3 6 -1 10 4 10 6 0 11 -4 11 -10z m605 -168 c-3 -3 -11 0
-18 7 -9 10 -8 11 6 5 10 -3 15 -9 12 -12z m1333 -7 c-3 -3 -9 2 -12 12 -6 14
-5 15 5 6 7 -7 10 -15 7 -18z m-1055 -69 c4 -10 1 -13 -8 -9 -8 3 -12 9 -9 14
7 12 11 11 17 -5z m177 -36 c0 -5 -2 -10 -4 -10 -3 0 -8 5 -11 10 -3 6 -1 10
4 10 6 0 11 -4 11 -10z m284 -83 c-2 -7 -15 -13 -27 -14 -21 -2 -21 -1 3 12
31 18 30 18 24 2z m191 -37 c-3 -5 -12 -10 -18 -10 -7 0 -6 4 3 10 19 12 23
12 15 0z m240 -39 c3 -5 2 -12 -3 -15 -5 -3 -9 1 -9 9 0 17 3 19 12 6z"/>
<path d="M1190 5696 c0 -2 8 -10 18 -17 15 -13 16 -12 3 4 -13 16 -21 21 -21
13z"/>
<path d="M1193 4885 c0 -8 4 -12 9 -9 5 3 6 10 3 15 -9 13 -12 11 -12 -6z"/>
<path d="M1197 4833 c-10 -9 -9 -23 1 -23 5 0 9 7 9 15 0 17 -1 18 -10 8z"/>
<path d="M946 4782 c-3 -5 1 -9 9 -9 8 0 15 4 15 9 0 4 -4 8 -9 8 -6 0 -12 -4
-15 -8z"/>
<path d="M1186 4757 c3 -10 9 -15 12 -12 3 3 0 11 -7 18 -10 9 -11 8 -5 -6z"/>
<path d="M1192 4714 c-7 -8 -8 -14 -3 -14 10 0 25 19 20 25 -2 1 -10 -3 -17
-11z"/>
<path d="M1203 4658 c1 -7 -4 -12 -11 -10 -8 1 -11 -2 -7 -8 5 -8 11 -8 21 1
7 6 11 15 8 20 -8 13 -14 11 -11 -3z"/>
<path d="M1190 4580 c0 -5 5 -10 11 -10 5 0 7 5 4 10 -3 6 -8 10 -11 10 -2 0
-4 -4 -4 -10z"/>
<path d="M1079 4558 c-7 -23 -4 -35 7 -35 9 0 11 4 4 12 -5 7 -7 15 -3 18 3 4
3 7 0 7 -4 0 -7 -1 -8 -2z"/>
<path d="M1077 3837 c-3 -8 1 -14 8 -14 7 0 11 6 8 14 -3 7 -6 13 -8 13 -2 0
-5 -6 -8 -13z"/>
<path d="M1189 3816 c17 -10 20 -15 10 -18 -12 -5 -12 -7 0 -19 8 -8 11 -9 7
-2 -3 6 -1 15 5 19 13 8 -15 34 -35 34 -6 -1 0 -7 13 -14z"/>
<path d="M1175 3760 c3 -5 8 -10 11 -10 2 0 4 5 4 10 0 6 -5 10 -11 10 -5 0
-7 -4 -4 -10z"/>
<path d="M1182 3571 c-11 -6 -10 -10 4 -15 9 -3 19 -4 22 -1 3 3 -1 5 -9 5
-11 0 -11 2 1 10 8 5 11 10 5 10 -5 0 -16 -4 -23 -9z"/>
<path d="M1020 2341 c0 -10 19 -25 25 -20 1 2 -3 10 -11 17 -8 7 -14 8 -14 3z"/>
<path d="M1866 6715 c-9 -26 -7 -32 5 -12 6 10 9 21 6 23 -2 3 -7 -2 -11 -11z"/>
<path d="M1455 6680 c-3 -5 -1 -10 4 -10 6 0 11 5 11 10 0 6 -2 10 -4 10 -3 0
-8 -4 -11 -10z"/>
<path d="M2641 6631 c-8 -5 -9 -11 -3 -15 5 -3 12 1 16 9 6 17 6 18 -13 6z"/>
<path d="M2755 6619 c-4 -6 -5 -12 -2 -15 2 -3 7 2 10 11 7 17 1 20 -8 4z"/>
<path d="M2945 6600 c-3 -5 -1 -11 5 -15 5 -3 10 -3 10 1 0 3 6 1 13 -5 10 -8
19 -7 33 5 10 8 13 13 7 9 -7 -3 -19 -3 -25 2 -19 11 -37 12 -43 3z"/>
<path d="M3076 6577 c3 -10 9 -15 12 -12 3 3 0 11 -7 18 -10 9 -11 8 -5 -6z"/>
<path d="M3435 6561 c-3 -5 -2 -12 3 -15 5 -3 9 1 9 9 0 17 -3 19 -12 6z"/>
<path d="M4066 6463 c-6 -14 -5 -15 5 -6 7 7 10 15 7 18 -3 3 -9 -2 -12 -12z"/>
<path d="M4096 6458 c3 -5 10 -6 15 -3 13 9 11 12 -6 12 -8 0 -12 -4 -9 -9z"/>
<path d="M5196 6347 c3 -10 9 -15 12 -12 3 3 0 11 -7 18 -10 9 -11 8 -5 -6z"/>
<path d="M5146 6335 c-2 -6 2 -12 10 -12 7 0 15 6 18 12 2 6 -2 12 -10 12 -7
0 -15 -6 -18 -12z"/>
<path d="M5427 6307 c-3 -8 0 -14 7 -14 7 0 13 6 13 14 0 7 -4 13 -8 13 -4 0
-9 -6 -12 -13z"/>
<path d="M5466 6301 c8 -9 44 -11 44 -3 0 4 -11 8 -25 8 -13 0 -22 -2 -19 -5z"/>
<path d="M1126 5395 c4 -8 11 -15 16 -15 6 0 5 6 -2 15 -7 8 -14 15 -16 15 -2
0 -1 -7 2 -15z"/>
<path d="M1187 5209 c7 -7 15 -10 18 -7 3 3 -2 9 -12 12 -14 6 -15 5 -6 -5z"/>
<path d="M693 4748 c0 -13 1 -17 4 -10 3 6 10 9 16 5 7 -4 6 1 -2 10 -17 21
-17 21 -18 -5z"/>
<path d="M1053 4283 c0 -9 4 -10 13 -2 8 7 13 6 16 -3 3 -8 6 -8 10 3 4 11 -1
15 -16 15 -13 0 -23 -6 -23 -13z"/>
<path d="M1187 4184 c6 -15 23 -19 23 -5 0 5 -7 11 -14 14 -10 4 -13 1 -9 -9z"/>
<path d="M817 3343 c3 -7 6 -13 8 -13 2 0 5 6 8 13 3 8 -1 14 -8 14 -7 0 -11
-6 -8 -14z"/>
<path d="M1182 3121 c2 -7 7 -12 11 -12 12 1 9 15 -3 20 -7 2 -11 -2 -8 -8z"/>
<path d="M1096 2978 c3 -4 11 -5 19 -1 21 7 19 12 -4 10 -11 0 -18 -5 -15 -9z"/>
<path d="M740 2690 c-9 -6 -10 -10 -3 -10 6 0 15 5 18 10 8 12 4 12 -15 0z"/>
<path d="M1190 1639 c0 -5 5 -7 10 -4 6 3 10 8 10 11 0 2 -4 4 -10 4 -5 0 -10
-5 -10 -11z"/>
<path d="M1234 1574 c-18 -14 -18 -15 4 -4 12 6 22 13 22 15 0 8 -5 6 -26 -11z"/>
<path d="M1393 1546 c-3 -5 -1 -6 5 -2 5 3 13 0 15 -6 4 -10 6 -10 6 -1 1 7 7
10 15 7 8 -3 16 -2 19 3 3 4 -8 8 -25 8 -16 1 -32 -3 -35 -9z"/>
<path d="M1530 1500 c0 -5 5 -10 11 -10 5 0 7 5 4 10 -3 6 -8 10 -11 10 -2 0
-4 -4 -4 -10z"/>
<path d="M1580 1501 c0 -5 7 -11 15 -15 8 -3 15 -1 15 3 0 5 -7 11 -15 15 -8
3 -15 1 -15 -3z"/>
<path d="M1835 1420 c-3 -5 -1 -10 4 -10 6 0 11 5 11 10 0 6 -2 10 -4 10 -3 0
-8 -4 -11 -10z"/>
<path d="M2155 1340 c3 -5 8 -10 11 -10 2 0 4 5 4 10 0 6 -5 10 -11 10 -5 0
-7 -4 -4 -10z"/>
<path d="M2230 1330 c0 -5 5 -10 11 -10 5 0 7 5 4 10 -3 6 -8 10 -11 10 -2 0
-4 -4 -4 -10z"/>
<path d="M2290 1309 c0 -4 7 -10 16 -13 8 -3 13 -2 9 3 -3 5 1 11 7 14 7 3 3
4 -9 4 -13 -1 -23 -4 -23 -8z"/>
<path d="M2486 1257 c3 -10 9 -15 12 -12 3 3 0 11 -7 18 -10 9 -11 8 -5 -6z"/>
<path d="M8 1253 c7 -3 16 -2 19 1 4 3 -2 6 -13 5 -11 0 -14 -3 -6 -6z"/>
<path d="M57 1245 c-4 -8 -2 -17 3 -20 6 -4 10 0 10 9 0 8 6 17 13 19 7 4 6 6
-4 6 -9 1 -19 -6 -22 -14z"/>
<path d="M190 1256 c0 -2 9 -6 20 -9 11 -3 18 -1 14 4 -5 9 -34 13 -34 5z"/>
<path d="M260 1210 c0 -48 1 -50 28 -49 22 1 23 2 5 6 -18 3 -22 11 -21 43 0
32 4 40 22 43 17 3 15 5 -6 6 -27 1 -28 -1 -28 -49z"/>
<path d="M114 1235 c20 -20 6 -59 -23 -63 -16 -3 -21 2 -21 20 0 17 -3 20 -9
9 -20 -31 22 -56 55 -33 28 18 22 82 -8 82 -5 0 -3 -7 6 -15z"/>
<path d="M161 1228 c-11 -28 8 -62 35 -65 13 -2 14 -1 4 3 -28 11 -39 35 -30
60 5 13 7 24 4 24 -2 0 -9 -10 -13 -22z"/>
<path d="M2613 1215 c0 -6 6 -12 12 -12 6 0 12 6 12 12 0 6 -6 12 -12 12 -6 0
-12 -6 -12 -12z"/>
<path d="M225 1190 c3 -5 8 -10 11 -10 2 0 4 5 4 10 0 6 -5 10 -11 10 -5 0 -7
-4 -4 -10z"/>
<path d="M7 1163 c7 -2 19 -2 26 0 6 3 1 5 -13 5 -14 0 -19 -2 -13 -5z"/>
<path d="M6100 1020 c0 -5 5 -10 11 -10 5 0 7 5 4 10 -3 6 -8 10 -11 10 -2 0
-4 -4 -4 -10z"/>
<path d="M6070 1016 c0 -2 8 -10 18 -17 15 -13 16 -12 3 4 -13 16 -21 21 -21
13z"/>
<path d="M3505 960 c-3 -6 1 -7 9 -4 18 7 21 14 7 14 -6 0 -13 -4 -16 -10z"/>
<path d="M3996 842 c-3 -5 1 -9 9 -9 8 0 12 4 9 9 -3 4 -7 8 -9 8 -2 0 -6 -4
-9 -8z"/>
<path d="M5356 493 c-12 -13 -5 -20 19 -20 14 0 25 1 25 3 0 8 -38 23 -44 17z"/>
</g>
</svg>
