<?xml version="1.0" standalone="no"?>
<!DOCTYPE svg PUBLIC "-//W3C//DTD SVG 20010904//EN"
 "http://www.w3.org/TR/2001/REC-SVG-20010904/DTD/svg10.dtd">
<svg version="1.0" xmlns="http://www.w3.org/2000/svg"
 width="120.000000pt" height="120.000000pt" viewBox="0 0 120.000000 120.000000"
 preserveAspectRatio="xMidYMid meet">
<metadata>
Created by potrace 1.11, written by Peter Selinger 2001-2013
</metadata>
<g transform="translate(0.000000,120.000000) scale(0.100000,-0.100000)"
fill="#000000" stroke="none">
<path d="M195 1144 c-14 -15 -25 -32 -25 -39 0 -7 -12 -15 -27 -18 -38 -8 -73
-43 -73 -73 0 -33 17 -64 35 -64 8 0 15 -4 15 -9 0 -5 10 -11 23 -13 12 -2 22
-10 22 -18 1 -17 -26 -41 -37 -34 -5 3 -8 0 -8 -5 0 -6 -6 -11 -14 -11 -13 0
-26 -19 -32 -49 -5 -27 26 -71 61 -85 19 -8 35 -17 35 -20 0 -3 -17 -14 -39
-25 -77 -40 -78 -112 -2 -151 28 -14 39 -25 35 -35 -4 -8 -13 -15 -21 -15 -22
0 -73 -56 -73 -80 0 -31 27 -66 60 -80 29 -12 35 -27 31 -71 -1 -11 13 -20 46
-29 26 -7 79 -21 117 -32 38 -11 76 -21 85 -24 9 -2 43 -11 76 -19 33 -9 67
-18 75 -20 8 -2 15 -4 15 -5 0 -1 7 -3 15 -5 8 -1 78 -20 155 -40 219 -59 203
-57 219 -27 16 31 67 72 98 77 11 3 23 7 26 10 8 7 6 924 -1 932 -4 3 -15 7
-25 8 -9 1 -35 5 -57 8 -22 4 -67 9 -99 12 -33 3 -73 8 -90 10 -44 7 -124 16
-171 20 -22 2 -60 6 -85 9 -25 4 -65 9 -90 11 -25 3 -63 8 -85 10 -151 18
-163 18 -190 -11z m-34 -106 c0 -7 2 -23 3 -35 4 -39 -9 -45 -38 -19 l-28 24
21 21 c24 24 41 27 42 9z m4 -241 c1 -41 -9 -46 -37 -20 -23 20 -23 32 0 49
26 20 36 12 37 -29z m-1 -180 c4 -36 -7 -50 -33 -42 -27 8 -27 40 1 59 25 18
29 16 32 -17z m-5 -225 c-4 -2 -5 -12 -2 -22 6 -24 -4 -25 -29 -3 -25 22 -23
52 5 62 18 7 23 5 28 -13 3 -11 2 -22 -2 -24z"/>
</g>
</svg>
